<svg xmlns="http://www.w3.org/2000/svg" width="98" height="98" viewBox="0 0 98 98">
  <path fill="#000000" fill-rule="evenodd" d="M49,97.5 C22.3,97.5 0.5,75.7 0.5,49 C0.5,22.3 22.3,0.5 49,0.5 C75.7,0.5 97.5,22.3 97.5,49 C97.5,75.7 75.7,97.5 49,97.5 Z M40,67.9 C39.6,67.9 39.2,67.7 38.9,67.5 L22,50.5 C21.4,49.9 21.4,49 22,48.4 C22.6,47.8 23.5,47.8 24.1,48.4 L40,64.3 L73.9,30.5 C74.5,29.9 75.4,29.9 76,30.5 C76.6,31.1 76.6,32 76,32.6 L41.1,67.5 C40.8,67.8 40.4,67.9 40,67.9 Z M49,3.5 C23.9,3.5 3.5,23.9 3.5,49 C3.5,74.1 23.9,94.5 49,94.5 C74.1,94.5 94.5,74.1 94.5,49 C94.5,23.9 74.1,3.5 49,3.5 Z"/>
</svg>
