<?xml version="1.0" encoding="UTF-8" standalone="no"?>
<svg width="24px" height="24px" viewBox="0 0 24 24" version="1.1" xmlns="http://www.w3.org/2000/svg" xmlns:xlink="http://www.w3.org/1999/xlink" xmlns:sketch="http://www.bohemiancoding.com/sketch/ns">
    <!-- Generator: Sketch 3.5.1 (25234) - http://www.bohemiancoding.com/sketch -->
    <title>ic-close</title>
    <desc>Created with Sketch.</desc>
    <defs></defs>
    <g id="Page-1" stroke="none" stroke-width="1" fill="none" fill-rule="evenodd" sketch:type="MSPage">
        <path d="M11.9999375,13.3689995 L22.3463793,23.7153162 C22.5354407,23.9043776 22.7834338,23.9990417 23.0311602,23.9990417 C23.2788867,23.9990417 23.5268798,23.9046443 23.7162079,23.7153162 C24.0945974,23.3374601 24.0945974,22.7236104 23.7162079,22.3457543 L13.3696328,11.9993042 L23.7162079,1.65272907 C24.0945974,1.2748729 24.0945974,0.661023288 23.7162079,0.283167117 C23.3378184,-0.0952223723 22.7247688,-0.0952223723 22.3463793,0.283167117 L11.9999917,10.6296797 L1.65362073,0.283433776 C1.27523124,-0.094955713 0.662181606,-0.094955713 0.283792117,0.283433776 C-0.0945973723,0.661289947 -0.0945973723,1.27513956 0.283792117,1.65299573 L10.6303047,11.9993833 L0.284058776,22.3457543 C-0.094330713,22.7236104 -0.094330713,23.3374601 0.284058776,23.7153162 C0.473120191,23.9043776 0.721113302,23.9990417 0.968839754,23.9990417 C1.21656621,23.9990417 1.46455932,23.9046443 1.65362073,23.7153162 L11.9999375,13.3689995 Z" id="ic-close" fill="#BBBBBB" sketch:type="MSShapeGroup"></path>
    </g>
</svg>