<?xml version="1.0" encoding="UTF-8" standalone="no"?>
<svg width="25px" height="24px" viewBox="0 0 25 24" version="1.1" xmlns="http://www.w3.org/2000/svg" xmlns:xlink="http://www.w3.org/1999/xlink" xmlns:sketch="http://www.bohemiancoding.com/sketch/ns">
    <!-- Generator: Sketch 3.5.1 (25234) - http://www.bohemiancoding.com/sketch -->
    <title>ic-menu</title>
    <desc>Created with Sketch.</desc>
    <defs></defs>
    <g id="Page-1" stroke="none" stroke-width="1" fill="none" fill-rule="evenodd" sketch:type="MSPage">
        <path d="M12.3789062,-0.000625 C5.75148925,-0.000625 0.37890625,5.371958 0.37890625,11.999375 C0.37890625,18.626792 5.75148925,23.999375 12.3789062,23.999375 C19.0063232,23.999375 24.3789062,18.626792 24.3789062,11.999375 C24.3789062,8.81677712 23.1146242,5.76453017 20.8641876,3.51409363 C18.6137511,1.26365708 15.5615041,-0.000625 12.3789062,-0.000625 L12.3789062,-0.000625 Z M19.1613063,16.559375 L5.48130625,16.559375 C5.01738706,16.559375 4.64130625,16.1832942 4.64130625,15.719375 C4.64130625,15.2554558 5.01738706,14.879375 5.48130625,14.879375 L19.1613063,14.879375 C19.6252254,14.879375 20.0013062,15.2554558 20.0013062,15.719375 C20.0013062,16.1832942 19.6252254,16.559375 19.1613063,16.559375 L19.1613063,16.559375 Z M19.1613063,12.959375 L5.48130625,12.959375 C5.01738706,12.959375 4.64130625,12.5832942 4.64130625,12.119375 C4.64130625,11.6554558 5.01738706,11.279375 5.48130625,11.279375 L19.1613063,11.279375 C19.6252254,11.279375 20.0013062,11.6554558 20.0013062,12.119375 C20.0013062,12.5832942 19.6252254,12.959375 19.1613063,12.959375 L19.1613063,12.959375 Z M19.1613063,9.359375 L5.48130625,9.359375 C5.01738706,9.359375 4.64130625,8.98329419 4.64130625,8.519375 C4.64130625,8.05545581 5.01738706,7.679375 5.48130625,7.679375 L19.1613063,7.679375 C19.6252254,7.679375 20.0013062,8.05545581 20.0013062,8.519375 C20.0013062,8.98329419 19.6252254,9.359375 19.1613062,9.359375 L19.1613063,9.359375 Z" id="ic-menu" fill="#BBBBBB" sketch:type="MSShapeGroup"></path>
    </g>
</svg>