<?xml version="1.0" encoding="UTF-8" standalone="no"?>
<svg width="25px" height="24px" viewBox="0 0 25 24" version="1.1" xmlns="http://www.w3.org/2000/svg" xmlns:xlink="http://www.w3.org/1999/xlink" xmlns:sketch="http://www.bohemiancoding.com/sketch/ns">
    <!-- Generator: Sketch 3.5.1 (25234) - http://www.bohemiancoding.com/sketch -->
    <title>logo-linkedin</title>
    <desc>Created with Sketch.</desc>
    <defs></defs>
    <g id="Page-1" stroke="none" stroke-width="1" fill="none" fill-rule="evenodd" sketch:type="MSPage">
        <path d="M0.627277065,1.92936203 C0.627277065,0.989394885 1.408593,0.226941807 2.37244039,0.226941807 L22.4978991,0.226941807 C23.4617147,0.226941807 24.2430624,0.989394885 24.2430624,1.92936203 L24.2430624,22.2901301 C24.2430624,23.2304148 23.4617147,23.9925503 22.4978991,23.9925503 L2.37244039,23.9925503 C1.408593,23.9925503 0.627277065,23.2304148 0.627277065,22.2901301 L0.627277065,1.92936203 L0.627277065,1.92936203 Z M7.78595251,20.1212194 L7.78595251,9.38971612 L4.21899949,9.38971612 L4.21899949,20.1212194 L7.78595251,20.1212194 L7.78595251,20.1212194 Z M6.00246012,7.92451058 C7.24632881,7.92451058 8.02053147,7.10045155 8.02053147,6.07061592 C7.99734985,5.01759868 7.24632881,4.21640371 6.02605457,4.21640371 C4.80590735,4.21640371 4.008142,5.01759868 4.008142,6.07061592 C4.008142,7.10045155 4.78218589,7.92451058 5.97921499,7.92451058 L6.00239661,7.92451058 L6.00246012,7.92451058 Z M9.75966122,20.1212194 L13.3265825,20.1212194 L13.3265825,14.1282937 C13.3265825,13.8075617 13.3497641,13.4871472 13.4439514,13.2578715 C13.7018072,12.6170425 14.2887151,11.9533495 15.2740928,11.9533495 C16.5648011,11.9533495 17.0811161,12.937457 17.0811161,14.380116 L17.0811161,20.1212194 L20.6477516,20.1212194 L20.6477516,13.9679277 C20.6477516,10.6716916 18.8880124,9.13789384 16.5412384,9.13789384 C14.6169732,9.13789384 13.7722095,10.2134576 13.302861,10.9460604 L13.3266778,10.9460604 L13.3266778,9.38971612 L9.75975649,9.38971612 C9.80656432,10.3966877 9.75975649,20.1212194 9.75975649,20.1212194 L9.75966122,20.1212194 Z" id="logo-linkedin" fill="#006699" sketch:type="MSShapeGroup"></path>
    </g>
</svg>