<?xml version="1.0" encoding="UTF-8" standalone="no"?>
<svg width="24px" height="25px" viewBox="0 0 24 25" version="1.1" xmlns="http://www.w3.org/2000/svg" xmlns:xlink="http://www.w3.org/1999/xlink" xmlns:sketch="http://www.bohemiancoding.com/sketch/ns">
    <!-- Generator: Sketch 3.5.1 (25234) - http://www.bohemiancoding.com/sketch -->
    <title>logo-facebook</title>
    <desc>Created with Sketch.</desc>
    <defs></defs>
    <g id="Page-1" stroke="none" stroke-width="1" fill="none" fill-rule="evenodd" sketch:type="MSPage">
        <path d="M22.6176371,24.39219 C23.3454208,24.39219 23.9355985,23.8020124 23.9355985,23.0740433 L23.9355985,1.82894679 C23.9355985,1.10088501 23.3455135,0.510892736 22.6176371,0.510892736 L1.37254054,0.510892736 C0.644478764,0.510892736 0.0544864865,1.10088501 0.0544864865,1.82894679 L0.0544864865,23.0740433 C0.0544864865,23.8019198 0.6443861,24.39219 1.37254054,24.39219 L22.6176371,24.39219 Z M16.5321081,24.39219 L16.5321081,15.1440356 L19.6362625,15.1440356 L20.1010656,11.5398657 L16.5321081,11.5398657 L16.5321081,9.23883096 C16.5321081,8.19534061 16.8218687,7.48423637 18.3182085,7.48423637 L20.2267181,7.48340239 L20.2267181,4.25980393 C19.8966486,4.21588115 18.7637375,4.11774988 17.4456834,4.11774988 C14.6940232,4.11774988 12.8101622,5.79737922 12.8101622,8.88188888 L12.8101622,11.5398657 L9.69803861,11.5398657 L9.69803861,15.1440356 L12.8101622,15.1440356 L12.8101622,24.39219 L16.5321081,24.39219 Z" id="logo-facebook" fill="#3C5A99" sketch:type="MSShapeGroup"></path>
    </g>
</svg>