<?xml version="1.0" encoding="UTF-8" standalone="no"?>
<svg width="25px" height="21px" viewBox="0 0 25 21" version="1.1" xmlns="http://www.w3.org/2000/svg" xmlns:xlink="http://www.w3.org/1999/xlink" xmlns:sketch="http://www.bohemiancoding.com/sketch/ns">
    <!-- Generator: Sketch 3.5.1 (25234) - http://www.bohemiancoding.com/sketch -->
    <title>logo-twitter</title>
    <desc>Created with Sketch.</desc>
    <defs></defs>
    <g id="Page-1" stroke="none" stroke-width="1" fill="none" fill-rule="evenodd" sketch:type="MSPage">
        <path d="M24.6553852,18.0702299 C23.7763689,17.6801369 22.8310811,17.4164844 21.8392807,17.2977027 C22.8515396,17.9048657 23.6287879,18.8658209 23.9949427,20.0106404 C23.0475565,19.4484686 21.9984024,19.0406974 20.8808785,18.8208996 C19.9868243,19.7737064 18.712277,20.3692762 17.3018641,20.3692762 C14.5934728,20.3692762 12.3982927,18.1739212 12.3982927,15.4657048 C12.3982927,15.0812248 12.4412556,14.7068516 12.5252054,14.3481808 C8.44959145,14.5524162 4.83630473,16.5052417 2.41765482,19.4717249 C1.99552767,18.7478085 1.75373262,17.9055651 1.75373262,17.0067373 C1.75373262,15.3052192 2.61909241,13.8045441 3.93527371,12.9248284 C3.1314643,12.9499557 2.37521654,13.1706452 1.71403962,13.5381989 C1.71328773,13.5175655 1.71328773,13.497142 1.71328773,13.4766485 C1.71328773,11.1003145 3.4038247,9.11881211 5.64691616,8.66802557 C5.23578764,8.55594094 4.80267935,8.49666373 4.35540747,8.49666373 C4.03910499,8.49666373 3.73241976,8.52658211 3.43248409,8.58409324 C4.05692313,6.63598894 5.86757075,5.21805717 8.01379032,5.17836418 C6.33412958,3.8628998 4.2200491,3.07935655 1.92240163,3.07935655 C1.52685305,3.07935655 1.136218,3.10264777 0.752280061,3.14772642 C2.92332961,1.7564082 5.50057665,0.944852532 8.27016861,0.944852532 C17.2897464,0.944852532 22.2214701,8.41675316 22.2214701,14.897378 C22.2214701,15.1098842 22.216574,15.320939 22.2076562,15.531242 C23.1653591,16.2231766 23.9966388,17.0866129 24.6544584,18.0701949" id="logo-twitter" fill="#55ACEE" sketch:type="MSShapeGroup" transform="translate(12.703833, 10.657064) scale(1, -1) translate(-12.703833, -10.657064) "></path>
    </g>
</svg>