<?xml version="1.0" encoding="UTF-8" standalone="no"?><svg xmlns="http://www.w3.org/2000/svg" xmlns:xlink="http://www.w3.org/1999/xlink"><symbol viewBox="0 0 24 24" id="ic-close"><title>ic-close</title><path d="M12 13.37l10.346 10.345a.966.966 0 0 0 1.37 0 .968.968 0 0 0 0-1.37L13.37 12 23.716 1.652a.968.968 0 1 0-1.37-1.37L12 10.63 1.654.283a.968.968 0 1 0-1.37 1.37L10.63 12 .284 22.345a.968.968 0 1 0 1.37 1.37L12 13.368z" fill="#BBB" fill-rule="evenodd"/></symbol><symbol viewBox="0 0 25 24" id="ic-menu"><title>ic-menu</title><path d="M12.38 0C5.75 0 .38 5.37.38 12c0 6.627 5.37 12 12 12 6.626 0 12-5.373 12-12a12 12 0 0 0-12-12zm6.78 16.56H5.48a.84.84 0 0 1 0-1.68h13.68a.84.84 0 0 1 0 1.68zm0-3.6H5.48a.84.84 0 0 1 0-1.68h13.68a.84.84 0 0 1 0 1.68zm0-3.6H5.48a.84.84 0 0 1 0-1.68h13.68a.84.84 0 0 1 0 1.68z" fill="#BBB" fill-rule="evenodd"/></symbol><symbol viewBox="0 0 24 25" id="logo-facebook"><title>logo-facebook</title><path d="M22.618 24.392c.727 0 1.318-.59 1.318-1.318V1.83c0-.73-.59-1.32-1.318-1.32H1.373c-.73 0-1.32.59-1.32 1.32v21.244c0 .728.59 1.318 1.32 1.318h21.245zm-6.086 0v-9.248h3.104l.465-3.604h-3.568v-2.3c0-1.045.29-1.756 1.786-1.756h1.91V4.26c-.33-.044-1.464-.142-2.782-.142-2.752 0-4.636 1.68-4.636 4.764v2.658H9.698v3.604h3.112v9.248h3.722z" fill="#3C5A99" fill-rule="evenodd"/></symbol><symbol viewBox="0 0 25 24" id="logo-linkedin"><title>logo-linkedin</title><path d="M.627 1.93C.627.99 1.41.226 2.372.226h20.126c.964 0 1.745.762 1.745 1.702v20.36c0 .94-.78 1.703-1.745 1.703H2.372c-.963 0-1.745-.763-1.745-1.703V1.93zm7.16 18.19V9.39H4.218v10.73h3.566zM6 7.926c1.244 0 2.02-.825 2.02-1.854-.025-1.052-.776-1.854-1.996-1.854s-2.018.802-2.018 1.855c0 1.03.774 1.855 1.97 1.855h.024zM9.76 20.12h3.567V14.13c0-.32.023-.64.117-.87.258-.64.845-1.305 1.83-1.305 1.29 0 1.807.984 1.807 2.427v5.74h3.568V13.97c0-3.296-1.76-4.83-4.107-4.83-1.923 0-2.768 1.075-3.237 1.808h.024V9.39H9.76c.047 1.007 0 10.73 0 10.73z" fill="#069" fill-rule="evenodd"/></symbol><symbol viewBox="0 0 25 21" id="logo-twitter"><title>logo-twitter</title><path d="M24.655 3.244c-.88.39-1.824.654-2.816.772a4.92 4.92 0 0 0 2.155-2.713 9.805 9.805 0 0 1-3.114 1.19 4.903 4.903 0 0 0-8.356 4.473A13.922 13.922 0 0 1 2.42 1.842a4.878 4.878 0 0 0-.664 2.465 4.9 4.9 0 0 0 2.18 4.082 4.877 4.877 0 0 1-2.22-.614v.06a4.907 4.907 0 0 0 3.933 4.81 4.904 4.904 0 0 1-2.215.084 4.91 4.91 0 0 0 4.582 3.406 9.844 9.844 0 0 1-6.092 2.1c-.395 0-.786-.025-1.17-.07A13.884 13.884 0 0 0 8.27 20.37c9.02 0 13.95-7.473 13.95-13.953 0-.213-.003-.424-.012-.634a9.986 9.986 0 0 0 2.446-2.54" fill="#55ACEE" fill-rule="evenodd"/></symbol></svg>