<?xml version="1.0" encoding="utf-8"?><svg xmlns="http://www.w3.org/2000/svg" xmlns:xlink="http://www.w3.org/1999/xlink"><symbol viewBox="0 0 98 98" id="ic-check"><path fill-rule="evenodd" d="M49 97.5C22.3 97.5.5 75.7.5 49S22.3.5 49 .5 97.5 22.3 97.5 49 75.7 97.5 49 97.5zm-9-29.6c-.4 0-.8-.2-1.1-.4L22 50.5c-.6-.6-.6-1.5 0-2.1.6-.6 1.5-.6 2.1 0L40 64.3l33.9-33.8c.6-.6 1.5-.6 2.1 0 .6.6.6 1.5 0 2.1L41.1 67.5c-.3.3-.7.4-1.1.4zm9-64.4C23.9 3.5 3.5 23.9 3.5 49S23.9 94.5 49 94.5 94.5 74.1 94.5 49 74.1 3.5 49 3.5z"/></symbol><symbol viewBox="0 0 24 24" id="ic-close"><title>ic-close</title><path d="M12 13.369l10.346 10.346a.966.966 0 0 0 1.37 0 .968.968 0 0 0 0-1.37L13.37 12 23.716 1.653a.968.968 0 1 0-1.37-1.37L12 10.63 1.654.283a.968.968 0 1 0-1.37 1.37L10.63 11.999.284 22.346a.968.968 0 1 0 1.37 1.37L12 13.368z" fill="#BBB" fill-rule="evenodd"/></symbol><symbol viewBox="0 0 25 24" id="ic-menu"><title>ic-menu</title><path d="M12.379 0c-6.628 0-12 5.372-12 12 0 6.627 5.372 12 12 12 6.627 0 12-5.373 12-12a12 12 0 0 0-12-12zm6.782 16.56H5.481a.84.84 0 1 1 0-1.68h13.68a.84.84 0 0 1 0 1.68zm0-3.6H5.481a.84.84 0 1 1 0-1.68h13.68a.84.84 0 0 1 0 1.68zm0-3.6H5.481a.84.84 0 1 1 0-1.68h13.68a.84.84 0 0 1 0 1.68z" fill="#BBB" fill-rule="evenodd"/></symbol><symbol viewBox="0 0 24 25" id="logo-facebook"><title>logo-facebook</title><path d="M22.618 24.392c.727 0 1.318-.59 1.318-1.318V1.829c0-.728-.59-1.318-1.318-1.318H1.373C.644.51.054 1.1.054 1.829v21.245c0 .728.59 1.318 1.319 1.318h21.245zm-6.086 0v-9.248h3.104l.465-3.604h-3.569V9.239c0-1.044.29-1.755 1.786-1.755h1.909V4.26c-.33-.044-1.463-.142-2.781-.142-2.752 0-4.636 1.68-4.636 4.764v2.658H9.698v3.604h3.112v9.248h3.722z" fill="#3C5A99" fill-rule="evenodd"/></symbol><symbol viewBox="0 0 25 24" id="logo-linkedin"><title>logo-linkedin</title><path d="M.627 1.93C.627.99 1.41.226 2.372.226h20.126c.964 0 1.745.762 1.745 1.702V22.29c0 .94-.781 1.703-1.745 1.703H2.372c-.963 0-1.745-.763-1.745-1.703V1.93zM7.786 20.12V9.39H4.219V20.12h3.567zM6.002 7.925c1.244 0 2.019-.825 2.019-1.854-.024-1.053-.775-1.855-1.995-1.855-1.22 0-2.018.802-2.018 1.855 0 1.03.774 1.854 1.971 1.854h.023zM9.76 20.12h3.567v-5.993c0-.32.023-.64.117-.87.258-.641.845-1.305 1.83-1.305 1.29 0 1.807.984 1.807 2.427v5.741h3.567v-6.153c0-3.296-1.76-4.83-4.107-4.83-1.924 0-2.769 1.075-3.238 1.808h.024V9.39H9.76c.047 1.007 0 10.731 0 10.731z" fill="#069" fill-rule="evenodd"/></symbol><symbol viewBox="0 0 25 21" id="logo-twitter"><title>logo-twitter</title><path d="M24.655 3.244a9.805 9.805 0 0 1-2.816.772 4.92 4.92 0 0 0 2.156-2.713 9.805 9.805 0 0 1-3.114 1.19 4.903 4.903 0 0 0-8.356 4.473A13.922 13.922 0 0 1 2.418 1.842a4.878 4.878 0 0 0-.664 2.465c0 1.702.865 3.203 2.181 4.082a4.877 4.877 0 0 1-2.221-.613v.061a4.907 4.907 0 0 0 3.933 4.81 4.904 4.904 0 0 1-2.215.083 4.91 4.91 0 0 0 4.582 3.406 9.844 9.844 0 0 1-6.092 2.099c-.395 0-.786-.024-1.17-.069A13.884 13.884 0 0 0 8.27 20.37c9.02 0 13.951-7.472 13.951-13.952 0-.213-.004-.424-.013-.634a9.986 9.986 0 0 0 2.446-2.54" fill="#55ACEE" fill-rule="evenodd"/></symbol></svg>